# xmcd
#
# Track frame offsets: 
#        150
#        13362
#        29750
#        51527
#        72162
#        92582
#        109565
#        121802
#        137512
#        152232
#        171947
#        194572
#        209945
#        226012
#        248057
#        268190
#        290285
#
# Disc length: 4064 seconds
#
# Revision: 6
# Processed by: cddbd v1.5.1PL0 Copyright (c) Steve Scherf et al.
# Submitted via: ExactAudioCopy v0.95a5
#
DISCID=010fde11
DTITLE=Various Artist - Genuine Houserockin' Music V
DYEAR=1993
DGENRE=Blues
TTITLE0=Koko Taylor - Don't Put Your Hands On Me
TTITLE1=Billy Boy Arnold - I Wish You Would
TTITLE2=Elvin Bishop - Stealin' Watermelons
TTITLE3=Katie Webster - I'm Bad
TTITLE4=Little Charlie and the Nightcats - My Next Ex-Wife
TTITLE5=Johnny Heartsman - Paint My Mailbox Blue
TTITLE6=Saffire- the Uppity Blues Women - Don't Treat Your Man Like a 
TTITLE6=Dog
TTITLE7=Clarence "Gatemouth" Brown - Stop Time
TTITLE8=Tinsley Ellis - Highwayman
TTITLE9=William Clarke - Pawnshop Bound
TTITLE10=Lil' Ed and the Blues Imperials - Older Woman
TTITLE11=Bob Margolin - While You're Down There
TTITLE12=Kenny Neal - Right Train, Wrong Track
TTITLE13=Maurice John Vaughn - Watching Your Watch
TTITLE14=Lonnie Brooks - Feast or Famine
TTITLE15=Charlie Musselwhite - Hear Me Talkin'
TTITLE16=Son Seals - Bad Axe
EXTD=LABEL =Alligator Records and Artist Mgmt., Inc.\nID =ALCD109\nU
EXTD=PC =014551-0109-20\nCOPYRIGHT =1993
EXTT0=
EXTT1=
EXTT2=
EXTT3=
EXTT4=
EXTT5=
EXTT6=
EXTT7=
EXTT8=
EXTT9=
EXTT10=
EXTT11=
EXTT12=
EXTT13=
EXTT14=
EXTT15=
EXTT16=
PLAYORDER=
